<svg aria-hidden="true" style="position: absolute; width: 0; height: 0; overflow: hidden;" version="1.1"
	xmlns="http://www.w3.org/2000/svg" xmlns:xlink="http://www.w3.org/1999/xlink">
	<defs>
		<symbol id='logo'  x="0px" y="0px"
			width="100%" viewBox="0 0 1080 1080" enable-background="new 0 0 1080 1080" xml:space="preserve">

			<path fill="transparent" opacity="1.000000" stroke="none" 
				d="
			M449.000000,1.000000 
				C659.624084,1.000000 870.248108,1.000000 1080.936035,1.000000 
				C1080.936035,360.884552 1080.936035,720.769104 1080.936035,1081.000000 
				C960.306702,1081.000000 839.613037,1081.000000 718.459229,1080.565186 
				C717.951477,1078.965820 718.002930,1077.787598 717.842102,1076.638794 
				C712.125000,1035.793579 702.306030,995.853027 689.199707,956.847412 
				C678.814941,925.941223 667.053467,895.461487 654.871460,865.207886 
				C646.550049,844.541809 636.444580,824.594482 627.158142,804.315918 
				C625.723877,801.184021 624.404602,797.999451 623.346313,794.974365 
				C625.573853,796.955933 627.494263,798.795166 629.399353,800.649963 
				C639.763367,810.740112 651.208923,819.258240 665.031921,823.978394 
				C692.908081,833.497437 718.576294,827.514465 742.482056,811.921814 
				C760.564697,800.127502 774.829590,784.762573 779.904724,763.205750 
				C787.406860,731.340393 780.547546,702.857422 757.436401,678.869690 
				C756.227478,677.614990 755.542603,675.163574 755.729797,673.386841 
				C756.263306,668.324158 754.934082,664.990417 750.008362,664.733887 
				C743.992554,664.420654 739.984619,661.025818 735.393799,658.149841 
				C731.608215,655.778259 727.621643,653.541077 723.442810,652.014465 
				C698.884338,643.042725 675.275208,647.054565 652.432312,658.060059 
				C640.385681,663.864014 631.008057,673.137634 622.199585,682.552368 
				C622.503784,666.209229 622.764465,650.328247 623.212036,634.452576 
				C623.326538,630.388550 621.845398,628.336731 617.723633,627.827576 
				C613.794922,627.342407 609.925964,626.374023 606.023376,625.184326 
				C605.349792,617.214050 604.683533,609.677490 604.480591,602.073608 
				C621.598816,602.098267 638.255066,602.098694 654.907715,602.343689 
				C659.326599,602.408752 661.751221,600.683594 662.649475,596.428284 
				C664.057129,589.760254 665.615112,583.123840 667.020874,576.455383 
				C669.924866,562.679932 670.896973,548.380554 678.642517,535.944580 
				C679.772766,534.129822 680.278748,531.273743 679.782532,529.210022 
				C677.472900,519.604858 680.592834,511.198700 684.612915,502.810883 
				C687.770935,496.221802 687.669250,489.696808 685.416687,482.518005 
				C683.438416,476.213562 682.861145,469.198822 683.069946,462.541840 
				C683.387329,452.422699 685.096436,442.355194 685.870911,432.239441 
				C686.360168,425.849304 685.846375,425.606659 679.443298,425.016205 
				C666.494202,423.822113 655.401611,418.744690 646.570923,409.069672 
				C637.998962,399.678162 633.560486,388.299347 631.031189,376.072601 
				C627.450500,358.763336 628.450867,341.270081 629.183167,323.799500 
				C629.339294,320.073730 629.703796,316.356750 630.287598,312.847412 
				C638.718018,333.402466 644.545715,354.321808 646.446777,376.246216 
				C649.399231,355.982117 647.420410,335.853607 645.268860,315.657837 
				C653.166870,334.608459 659.459534,353.923218 660.654053,374.619965 
				C663.728210,352.247437 664.703186,329.837341 662.938293,307.336487 
				C661.162781,284.700623 656.215393,262.721771 649.023987,241.037430 
				C662.898499,255.134705 676.686707,269.039001 693.536987,279.854065 
				C694.089600,280.195099 694.460205,280.313751 694.830750,280.432434 
				C694.626770,279.887939 694.422729,279.343475 694.065674,278.501343 
				C667.121094,254.367706 649.291016,223.978592 631.877136,192.887634 
				C632.609680,188.904053 633.599487,185.375610 633.940613,181.785522 
				C635.135010,169.214401 629.145142,159.445312 621.102356,150.684967 
				C617.210266,146.445648 612.877930,142.610519 608.761536,138.185944 
				C608.255676,134.163239 607.673706,130.554276 607.228760,126.928497 
				C606.836060,123.728592 604.949158,122.710182 602.008728,123.077469 
				C598.043457,123.572769 594.082153,124.099434 590.055908,124.233856 
				C589.319519,122.729515 588.832703,121.423904 587.945190,120.505531 
				C575.840881,107.980019 564.179443,94.970016 551.416138,83.151535 
				C533.164368,66.250961 511.686554,54.197483 488.352142,45.742737 
				C475.088684,40.936989 461.442261,37.188198 447.965820,32.562172 
				C448.308929,21.773945 448.654449,11.386972 449.000000,1.000000 
			z"/>
			<path fill="#675E7D" opacity="1.000000" stroke="none" 
				d="
			M447.968292,32.963421 
				C461.442261,37.188198 475.088684,40.936989 488.352142,45.742737 
				C511.686554,54.197483 533.164368,66.250961 551.416138,83.151535 
				C564.179443,94.970016 575.840881,107.980019 587.945190,120.505531 
				C588.832703,121.423904 589.319519,122.729515 589.757812,124.374100 
				C587.224304,125.722733 584.894348,126.488014 586.854858,129.722931 
				C589.934692,134.804764 602.709778,140.012756 608.744934,138.592392 
				C612.877930,142.610519 617.210266,146.445648 621.102356,150.684967 
				C629.145142,159.445312 635.135010,169.214401 633.940613,181.785522 
				C633.599487,185.375610 632.609680,188.904053 631.570190,192.967331 
				C630.710571,194.095840 630.063721,194.649033 629.704895,195.349731 
				C618.671509,216.897614 602.106201,233.126129 581.424988,245.310699 
				C562.374023,256.534790 542.695923,266.271790 520.060852,267.455078 
				C511.149323,267.920959 502.193115,267.531433 492.820923,267.531433 
				C492.839355,267.487366 492.411957,268.222565 492.218079,269.014923 
				C480.555023,316.676300 468.929291,364.346832 457.260468,412.006744 
				C445.221558,461.178162 445.541962,510.647461 453.899902,560.252441 
				C456.910339,578.119507 460.596680,595.872742 463.553589,613.696777 
				C450.476471,613.363037 437.821625,612.773560 425.163879,612.702148 
				C386.340485,612.482971 347.508667,612.868164 308.695404,612.169922 
				C292.627594,611.880737 279.225983,616.417786 266.335205,625.929504 
				C257.237244,632.642578 246.224838,636.761230 235.675537,642.105957 
				C225.699417,642.655090 215.968597,644.410339 206.563431,643.330139 
				C191.015854,641.544495 176.895889,634.709900 163.427399,626.897400 
				C145.590027,616.550842 129.941116,603.544128 116.338554,587.975952 
				C110.244598,581.001465 109.673340,580.070190 113.596924,571.787231 
				C114.095375,570.734924 114.655655,569.683899 114.955650,568.569885 
				C121.312576,544.963257 127.626518,521.345032 133.972229,497.735352 
				C135.946838,490.388641 137.072784,482.707764 143.161118,477.088989 
				C144.110809,476.212494 144.219833,473.689087 143.796234,472.187073 
				C141.898636,465.458252 139.360794,458.902863 137.612320,452.140472 
				C131.323929,427.819702 124.408134,403.616608 119.334930,379.037689 
				C113.333145,349.959839 111.867264,320.316376 113.103409,290.643982 
				C113.607208,278.550934 114.174675,266.283539 116.585915,254.477966 
				C126.397766,206.438492 147.561722,164.081528 181.812561,128.588913 
				C183.246063,127.103424 184.522980,125.156021 185.089310,123.197266 
				C187.817535,113.761147 190.189560,104.222740 192.848099,94.765648 
				C200.245697,68.450500 208.941895,42.600117 220.569687,17.802349 
				C223.168976,12.259012 225.529526,6.603736 228.000000,1.000000 
				C244.354233,1.000000 260.708466,1.000000 277.635559,1.321133 
				C278.500488,2.040455 278.712402,2.554450 279.096222,2.820046 
				C291.809479,11.617439 304.488556,20.466484 317.325623,29.079950 
				C319.079041,30.256479 321.695221,30.879993 323.805664,30.673540 
				C338.158691,29.269487 352.490845,27.636463 366.806305,25.885576 
				C368.398834,25.690794 370.116760,24.568760 371.310883,23.400711 
				C377.017395,17.818817 382.581482,12.090471 388.155243,6.374255 
				C389.837738,4.648732 391.388763,2.794996 393.000000,1.000000 
				C405.354218,1.000000 417.708466,1.000000 430.475403,1.350912 
				C426.301544,9.730395 421.714935,17.758966 416.481659,26.919504 
				C427.635651,29.060530 437.801971,31.011974 447.968292,32.963421 
			M246.972229,161.500000 
				C248.122742,194.102692 249.273270,226.705399 250.423782,259.308105 
				C250.908890,259.331177 251.394012,259.354248 251.879120,259.377319 
				C252.273209,258.163483 252.706024,256.960693 253.055618,255.734192 
				C259.168091,234.290161 264.818573,212.701965 271.470062,191.426666 
				C284.814087,148.744949 300.905579,107.193016 325.020081,69.210968 
				C326.879120,66.282875 326.462677,64.435501 323.950165,62.477573 
				C304.016754,46.944191 284.111359,31.374834 264.156403,15.869216 
				C263.070923,15.025764 261.619446,14.653345 260.031799,13.920093 
				C259.528137,15.389593 259.125641,16.268442 258.925385,17.191195 
				C251.820419,49.930077 248.418152,83.130585 247.108749,116.541100 
				C246.535309,131.173386 246.985168,145.845810 246.972229,161.500000 
			M479.554016,99.995155 
				C473.904602,102.782486 467.871185,104.999489 462.692810,108.486366 
				C454.218018,114.192902 455.233521,123.143478 464.435730,127.621391 
				C466.514191,128.632782 468.773560,129.710342 471.013702,129.872437 
				C478.933746,130.445465 486.949341,131.443741 494.803558,130.786194 
				C507.693390,129.707077 520.054871,126.325340 530.339294,117.716080 
				C537.113037,112.045624 536.463379,104.399361 528.622070,100.396324 
				C525.693359,98.901222 522.489441,97.649696 519.270142,97.070992 
				C506.095032,94.702637 493.088562,95.776779 479.554016,99.995155 
			z"/>
			<path fill="transparent" opacity="1.000000" stroke="none" 
				d="
			M227.531342,1.000000 
				C225.529526,6.603736 223.168976,12.259012 220.569687,17.802349 
				C208.941895,42.600117 200.245697,68.450500 192.848099,94.765648 
				C190.189560,104.222740 187.817535,113.761147 185.089310,123.197266 
				C184.522980,125.156021 183.246063,127.103424 181.812561,128.588913 
				C147.561722,164.081528 126.397766,206.438492 116.585915,254.477966 
				C114.174675,266.283539 113.607208,278.550934 113.103409,290.643982 
				C111.867264,320.316376 113.333145,349.959839 119.334930,379.037689 
				C124.408134,403.616608 131.323929,427.819702 137.612320,452.140472 
				C139.360794,458.902863 141.898636,465.458252 143.796234,472.187073 
				C144.219833,473.689087 144.110809,476.212494 143.161118,477.088989 
				C137.072784,482.707764 135.946838,490.388641 133.972229,497.735352 
				C127.626518,521.345032 121.312576,544.963257 114.955650,568.569885 
				C114.655655,569.683899 114.095375,570.734924 113.596924,571.787231 
				C109.673340,580.070190 110.244598,581.001465 116.338554,587.975952 
				C129.941116,603.544128 145.590027,616.550842 163.427399,626.897400 
				C176.895889,634.709900 191.015854,641.544495 206.563431,643.330139 
				C215.968597,644.410339 225.699417,642.655090 235.649628,642.570618 
				C235.994370,661.315063 235.973404,679.662537 235.719803,698.246704 
				C232.961563,700.336731 230.574677,702.429382 227.880035,703.991089 
				C222.987213,706.826843 217.851547,709.240845 212.924515,712.020935 
				C203.443176,717.370850 202.719376,719.185486 205.432556,729.617432 
				C205.767456,730.905090 206.182648,732.178772 206.657013,733.422180 
				C211.818222,746.950989 216.747131,760.577332 222.316864,773.936340 
				C224.147430,778.326843 223.168961,781.215942 220.287704,784.159546 
				C216.675186,787.850342 212.550781,791.149109 209.513199,795.257324 
				C207.284164,798.271973 205.226685,802.321960 205.242432,805.901123 
				C205.276535,813.658203 206.562256,821.425781 207.574173,829.157898 
				C208.542435,836.556519 211.275681,844.039246 210.665649,851.268311 
				C209.046982,870.450012 205.876572,889.495239 203.636093,908.631409 
				C201.551208,926.438782 199.672760,944.275635 198.070724,962.132446 
				C196.735519,977.015259 195.784988,991.937439 194.927261,1006.857239 
				C193.506821,1031.565063 192.297989,1056.285156 191.000000,1081.000000 
				C127.685173,1081.000000 64.370346,1081.000000 1.027757,1081.000000 
				C1.027757,721.123718 1.027757,361.247375 1.027757,1.000000 
				C76.353821,1.000000 151.708252,1.000000 227.531342,1.000000 
			z"/>
			<path fill="#675E7D" opacity="1.000000" stroke="none" 
				d="
			M191.468658,1081.000000 
				C192.297989,1056.285156 193.506821,1031.565063 194.927261,1006.857239 
				C195.784988,991.937439 196.735519,977.015259 198.070724,962.132446 
				C199.672760,944.275635 201.551208,926.438782 203.636093,908.631409 
				C205.876572,889.495239 209.046982,870.450012 210.665649,851.268311 
				C211.275681,844.039246 208.542435,836.556519 207.574173,829.157898 
				C206.562256,821.425781 205.276535,813.658203 205.242432,805.901123 
				C205.226685,802.321960 207.284164,798.271973 209.513199,795.257324 
				C212.550781,791.149109 216.675186,787.850342 220.287704,784.159546 
				C223.168961,781.215942 224.147430,778.326843 222.316864,773.936340 
				C216.747131,760.577332 211.818222,746.950989 206.657013,733.422180 
				C206.182648,732.178772 205.767456,730.905090 205.432556,729.617432 
				C202.719376,719.185486 203.443176,717.370850 212.924515,712.020935 
				C217.851547,709.240845 222.987213,706.826843 227.880035,703.991089 
				C230.574677,702.429382 232.961563,700.336731 236.192429,698.250366 
				C274.219269,698.355286 311.547180,698.384338 348.860077,699.147278 
				C371.163666,699.603333 393.461609,700.931885 415.729675,702.370361 
				C441.481293,704.033752 467.197266,706.248840 493.128510,708.516663 
				C508.061676,750.664185 523.951782,792.154968 537.279785,834.453064 
				C562.528687,914.583496 577.828064,996.396545 573.000000,1081.000000 
				C445.979095,1081.000000 318.958221,1081.000000 191.468658,1081.000000 
			z"/>
			<path fill="#F8E4CA" opacity="1.000000" stroke="none" 
				d="
			M573.460632,1081.000000 
				C577.828064,996.396545 562.528687,914.583496 537.279785,834.453064 
				C523.951782,792.154968 508.061676,750.664185 493.107971,708.129639 
				C486.655090,688.688171 480.178802,670.002197 474.276733,651.136597 
				C470.412567,638.784912 467.379730,626.173157 463.974548,613.677917 
				C460.596680,595.872742 456.910339,578.119507 453.899902,560.252441 
				C445.541962,510.647461 445.221558,461.178162 457.260468,412.006744 
				C468.929291,364.346832 480.555023,316.676300 492.218079,269.014923 
				C492.411957,268.222565 492.839355,267.487366 492.820923,267.531433 
				C502.193115,267.531433 511.149323,267.920959 520.060852,267.455078 
				C542.695923,266.271790 562.374023,256.534790 581.424988,245.310699 
				C602.106201,233.126129 618.671509,216.897614 629.704895,195.349731 
				C630.063721,194.649033 630.710571,194.095840 631.530029,193.394196 
				C649.291016,223.978592 667.121094,254.367706 693.847839,278.707550 
				C693.640320,279.351501 693.497620,279.491577 693.354919,279.631653 
				C676.686707,269.039001 662.898499,255.134705 649.023987,241.037430 
				C656.215393,262.721771 661.162781,284.700623 662.938293,307.336487 
				C664.703186,329.837341 663.728210,352.247437 660.654053,374.619965 
				C659.459534,353.923218 653.166870,334.608459 645.268860,315.657837 
				C647.420410,335.853607 649.399231,355.982117 646.446777,376.246216 
				C644.545715,354.321808 638.718018,333.402466 630.245605,312.494385 
				C623.810730,298.074951 617.955872,284.116608 611.578979,270.401031 
				C607.131775,260.835938 601.968994,251.603577 597.125854,242.222580 
				C598.031006,273.052795 594.102478,302.745209 583.520386,331.509583 
				C586.794922,305.006897 586.683838,278.665833 581.427734,252.310089 
				C568.421997,290.030945 555.995117,327.890289 529.700256,359.163696 
				C536.390564,337.380219 540.905212,315.295654 542.434692,292.638245 
				C541.571533,293.431183 541.281616,294.354797 540.941223,295.259460 
				C534.907043,311.295959 528.807495,327.308380 522.885071,343.386017 
				C521.877258,346.121979 521.084778,349.139130 521.104065,352.020264 
				C521.289062,379.646057 521.612976,407.271423 522.017151,434.895142 
				C522.238647,450.029236 522.630127,465.161682 523.066467,480.291351 
				C523.253174,486.766327 523.579163,493.247040 524.135803,499.699768 
				C526.019470,521.533997 527.999146,543.360291 530.062744,565.178162 
				C530.239624,567.048523 531.307678,568.834534 531.619873,570.909302 
				C533.547791,586.407288 535.817749,601.655640 538.062378,617.325317 
				C538.515564,620.851135 538.742920,624.019287 539.511536,627.050171 
				C546.764160,655.649597 554.109070,684.225647 561.582825,713.189209 
				C562.299866,715.486450 562.800415,717.423157 563.432068,719.316162 
				C580.441833,770.297241 597.627258,821.220520 614.443237,872.265381 
				C633.586792,930.375916 645.827454,989.644592 642.913940,1051.281494 
				C642.548096,1059.021118 641.762573,1066.740967 641.171448,1074.470093 
				C640.922485,1021.727844 628.537354,945.122131 617.922974,931.574219 
				C616.664368,950.098083 615.983521,969.589966 613.879272,988.927002 
				C610.500977,1019.971130 602.344971,1049.708618 586.483582,1076.963257 
				C585.773438,1078.183350 585.484863,1079.648804 585.000000,1081.000000 
				C581.307068,1081.000000 577.614197,1081.000000 573.460632,1081.000000 
			z"/>
			<path fill="#685F7D" opacity="1.000000" stroke="none" 
				d="
			M585.468628,1081.000000 
				C585.484863,1079.648804 585.773438,1078.183350 586.483582,1076.963257 
				C602.344971,1049.708618 610.500977,1019.971130 613.879272,988.927002 
				C615.983521,969.589966 616.664368,950.098083 617.922974,931.574219 
				C628.537354,945.122131 640.922485,1021.727844 641.171448,1074.470093 
				C641.762573,1066.740967 642.548096,1059.021118 642.913940,1051.281494 
				C645.827454,989.644592 633.586792,930.375916 614.443237,872.265381 
				C597.627258,821.220520 580.441833,770.297241 563.432068,719.316162 
				C562.800415,717.423157 562.299866,715.486450 561.968140,712.938538 
				C564.003662,712.177368 565.819763,711.852173 567.612976,711.949341 
				C580.696838,712.658875 593.776123,713.453369 607.018494,714.517761 
				C608.738525,717.364990 610.011230,720.155151 611.911011,722.419128 
				C616.837097,728.289612 617.015259,734.593445 614.902710,741.596497 
				C612.892273,748.261047 611.552124,755.125244 609.809509,761.873779 
				C607.543701,770.648743 609.772339,778.235168 615.492554,785.061951 
				C618.133606,788.213928 620.526672,791.573669 623.032166,794.839233 
				C624.404602,797.999451 625.723877,801.184021 627.158142,804.315918 
				C636.444580,824.594482 646.550049,844.541809 654.871460,865.207886 
				C667.053467,895.461487 678.814941,925.941223 689.199707,956.847412 
				C702.306030,995.853027 712.125000,1035.793579 717.842102,1076.638794 
				C718.002930,1077.787598 717.951477,1078.965820 717.999512,1080.565186 
				C673.979126,1081.000000 629.958191,1081.000000 585.468628,1081.000000 
			z"/>
			<path fill="transparent" opacity="1.000000" stroke="none" 
				d="
			M392.531342,1.000000 
				C391.388763,2.794996 389.837738,4.648732 388.155243,6.374255 
				C382.581482,12.090471 377.017395,17.818817 371.310883,23.400711 
				C370.116760,24.568760 368.398834,25.690794 366.806305,25.885576 
				C352.490845,27.636463 338.158691,29.269487 323.805664,30.673540 
				C321.695221,30.879993 319.079041,30.256479 317.325623,29.079950 
				C304.488556,20.466484 291.809479,11.617439 279.096222,2.820046 
				C278.712402,2.554450 278.500488,2.040455 278.104187,1.321133 
				C316.020905,1.000000 354.041779,1.000000 392.531342,1.000000 
			z"/>
			<path fill="#514462" opacity="1.000000" stroke="none" 
				d="
			M447.965820,32.562168 
				C437.801971,31.011974 427.635651,29.060530 416.481659,26.919504 
				C421.714935,17.758966 426.301544,9.730395 430.944092,1.350912 
				C436.688049,1.000000 442.376068,1.000000 448.532043,1.000000 
				C448.654449,11.386972 448.308929,21.773945 447.965820,32.562168 
			z"/>
			<path fill="#FBF6F0" opacity="1.000000" stroke="none" 
				d="
			M531.961792,570.659729 
				C531.307678,568.834534 530.239624,567.048523 530.062744,565.178162 
				C527.999146,543.360291 526.019470,521.533997 524.135803,499.699768 
				C523.579163,493.247040 523.253174,486.766327 523.066467,480.291351 
				C522.630127,465.161682 522.238647,450.029236 522.017151,434.895142 
				C521.612976,407.271423 521.289062,379.646057 521.104065,352.020264 
				C521.084778,349.139130 521.877258,346.121979 522.885071,343.386017 
				C528.807495,327.308380 534.907043,311.295959 540.941223,295.259460 
				C541.281616,294.354797 541.571533,293.431183 542.434692,292.638245 
				C540.905212,315.295654 536.390564,337.380219 529.700256,359.163696 
				C555.995117,327.890289 568.421997,290.030945 581.427734,252.310089 
				C586.683838,278.665833 586.794922,305.006897 583.520386,331.509583 
				C594.102478,302.745209 598.031006,273.052795 597.125854,242.222580 
				C601.968994,251.603577 607.131775,260.835938 611.578979,270.401031 
				C617.955872,284.116608 623.810730,298.074951 629.930420,312.282654 
				C629.703796,316.356750 629.339294,320.073730 629.183167,323.799500 
				C628.450867,341.270081 627.450500,358.763336 631.031189,376.072601 
				C633.560486,388.299347 637.998962,399.678162 646.570923,409.069672 
				C655.401611,418.744690 666.494202,423.822113 679.443298,425.016205 
				C685.846375,425.606659 686.360168,425.849304 685.870911,432.239441 
				C685.096436,442.355194 683.387329,452.422699 683.069946,462.541840 
				C682.861145,469.198822 683.438416,476.213562 685.416687,482.518005 
				C687.669250,489.696808 687.770935,496.221802 684.612915,502.810883 
				C680.592834,511.198700 677.472900,519.604858 679.782532,529.210022 
				C680.278748,531.273743 679.772766,534.129822 678.642517,535.944580 
				C670.896973,548.380554 669.924866,562.679932 667.020874,576.455383 
				C665.615112,583.123840 664.057129,589.760254 662.649475,596.428284 
				C661.751221,600.683594 659.326599,602.408752 654.907715,602.343689 
				C638.255066,602.098694 621.598816,602.098267 604.044250,601.991089 
				C594.053589,601.321960 584.954468,600.757141 575.878174,599.939941 
				C574.028809,599.773438 572.028748,598.995544 570.498779,597.926392 
				C557.600342,588.913025 544.795044,579.766296 531.961792,570.659729 
			M582.707764,335.242157 
				C582.558411,335.363434 582.409119,335.484711 582.259766,335.605988 
				C582.429688,335.566589 582.599670,335.527161 582.707764,335.242157 
			M528.531250,361.494080 
				C528.531250,361.494080 528.484863,361.514069 528.531250,361.494080 
			z"/>
			<path fill="#F3D765" opacity="1.000000" stroke="none" 
				d="
			M623.346313,794.974365 
				C620.526672,791.573669 618.133606,788.213928 615.492554,785.061951 
				C609.772339,778.235168 607.543701,770.648743 609.809509,761.873779 
				C611.552124,755.125244 612.892273,748.261047 614.902710,741.596497 
				C617.015259,734.593445 616.837097,728.289612 611.911011,722.419128 
				C610.011230,720.155151 608.738525,717.364990 607.037109,714.087524 
				C607.572266,710.651978 607.721802,707.651611 609.026306,705.288940 
				C613.195618,697.737488 617.793213,690.422668 622.225525,683.016479 
				C631.008057,673.137634 640.385681,663.864014 652.432312,658.060059 
				C675.275208,647.054565 698.884338,643.042725 723.442810,652.014465 
				C727.621643,653.541077 731.608215,655.778259 735.393799,658.149841 
				C739.984619,661.025818 743.992554,664.420654 750.008362,664.733887 
				C754.934082,664.990417 756.263306,668.324158 755.729797,673.386841 
				C755.542603,675.163574 756.227478,677.614990 757.436401,678.869690 
				C780.547546,702.857422 787.406860,731.340393 779.904724,763.205750 
				C774.829590,784.762573 760.564697,800.127502 742.482056,811.921814 
				C718.576294,827.514465 692.908081,833.497437 665.031921,823.978394 
				C651.208923,819.258240 639.763367,810.740112 629.399353,800.649963 
				C627.494263,798.795166 625.573853,796.955933 623.346313,794.974365 
			z"/>
			<path fill="#DF4C50" opacity="1.000000" stroke="none" 
				d="
			M622.199585,682.552368 
				C617.793213,690.422668 613.195618,697.737488 609.026306,705.288940 
				C607.721802,707.651611 607.572266,710.651978 606.875488,713.790710 
				C593.776123,713.453369 580.696838,712.658875 567.612976,711.949341 
				C565.819763,711.852173 564.003662,712.177368 561.812744,712.557739 
				C554.109070,684.225647 546.764160,655.649597 539.511536,627.050171 
				C538.742920,624.019287 538.515564,620.851135 538.498840,617.341675 
				C561.317322,619.830444 583.674011,622.724243 606.030701,625.618042 
				C609.925964,626.374023 613.794922,627.342407 617.723633,627.827576 
				C621.845398,628.336731 623.326538,630.388550 623.212036,634.452576 
				C622.764465,650.328247 622.503784,666.209229 622.199585,682.552368 
			z"/>
			<path fill="#695F7D" opacity="1.000000" stroke="none" 
				d="
			M606.023376,625.184326 
				C583.674011,622.724243 561.317322,619.830444 538.524170,616.920288 
				C535.817749,601.655640 533.547791,586.407288 531.619873,570.909302 
				C544.795044,579.766296 557.600342,588.913025 570.498779,597.926392 
				C572.028748,598.995544 574.028809,599.773438 575.878174,599.939941 
				C584.954468,600.757141 594.053589,601.321960 603.580933,602.058411 
				C604.683533,609.677490 605.349792,617.214050 606.023376,625.184326 
			z"/>
			<path fill="#F6CCD8" opacity="1.000000" stroke="none" 
				d="
			M608.761536,138.185944 
				C602.709778,140.012756 589.934692,134.804764 586.854858,129.722931 
				C584.894348,126.488014 587.224304,125.722733 589.821045,124.752869 
				C594.082153,124.099434 598.043457,123.572769 602.008728,123.077469 
				C604.949158,122.710182 606.836060,123.728592 607.228760,126.928497 
				C607.673706,130.554276 608.255676,134.163239 608.761536,138.185944 
			z"/>
			<!-- <path fill="#F8E4CA" opacity="1.000000" stroke="none" 
				d="
			M694.000854,279.005188 
				C694.422729,279.343475 694.626770,279.887939 694.830750,280.432434 
				C694.460205,280.313751 694.089600,280.195099 693.536987,279.854065 
				C693.497620,279.491577 693.640320,279.351501 694.000854,279.005188 
			z"/> -->
			<path fill="#DF4B50" opacity="1.000000" stroke="none" 
				d="
			M463.553589,613.696777 
				C467.379730,626.173157 470.412567,638.784912 474.276733,651.136597 
				C480.178802,670.002197 486.655090,688.688171 492.908142,707.837402 
				C467.197266,706.248840 441.481293,704.033752 415.729675,702.370361 
				C393.461609,700.931885 371.163666,699.603333 348.860077,699.147278 
				C311.547180,698.384338 274.219269,698.355286 236.425049,698.013672 
				C235.973404,679.662537 235.994370,661.315063 236.041245,642.502808 
				C246.224838,636.761230 257.237244,632.642578 266.335205,625.929504 
				C279.225983,616.417786 292.627594,611.880737 308.695404,612.169922 
				C347.508667,612.868164 386.340485,612.482971 425.163879,612.702148 
				C437.821625,612.773560 450.476471,613.363037 463.553589,613.696777 
			z"/>
			<path fill="#514462" opacity="1.000000" stroke="none" 
				d="
			M246.971298,161.000000 
				C246.985168,145.845810 246.535309,131.173386 247.108749,116.541100 
				C248.418152,83.130585 251.820419,49.930077 258.925385,17.191195 
				C259.125641,16.268442 259.528137,15.389593 260.031799,13.920093 
				C261.619446,14.653345 263.070923,15.025764 264.156403,15.869216 
				C284.111359,31.374834 304.016754,46.944191 323.950165,62.477573 
				C326.462677,64.435501 326.879120,66.282875 325.020081,69.210968 
				C300.905579,107.193016 284.814087,148.744949 271.470062,191.426666 
				C264.818573,212.701965 259.168091,234.290161 253.055618,255.734192 
				C252.706024,256.960693 252.273209,258.163483 251.879120,259.377319 
				C251.394012,259.354248 250.908890,259.331177 250.423782,259.308105 
				C249.273270,226.705399 248.122742,194.102692 246.971298,161.000000 
			z"/>
			<path fill="#47395C" opacity="1.000000" stroke="none" 
				d="
			M479.935364,99.877304 
				C493.088562,95.776779 506.095032,94.702637 519.270142,97.070992 
				C522.489441,97.649696 525.693359,98.901222 528.622070,100.396324 
				C536.463379,104.399361 537.113037,112.045624 530.339294,117.716080 
				C520.054871,126.325340 507.693390,129.707077 494.803558,130.786194 
				C486.949341,131.443741 478.933746,130.445465 471.013702,129.872437 
				C468.773560,129.710342 466.514191,128.632782 464.435730,127.621391 
				C455.233521,123.143478 454.218018,114.192902 462.692810,108.486366 
				C467.871185,104.999489 473.904602,102.782486 479.935364,99.877304 
			M514.799744,115.423218 
				C515.261719,115.234184 515.815735,115.150055 516.170532,114.838829 
				C518.202332,113.056725 520.186829,111.220642 522.187317,109.402863 
				C519.709473,108.104492 517.335938,105.973221 514.736328,105.647797 
				C501.446075,103.984116 488.516479,106.111679 476.146637,111.040314 
				C473.366608,112.147972 471.261810,114.950317 468.846161,116.972481 
				C471.836548,118.309158 474.746216,120.548187 477.831451,120.824089 
				C490.249268,121.934570 502.364563,119.955620 514.799744,115.423218 
			z"/>
			<!-- <path fill="#F8E4CA" opacity="1.000000" stroke="none" 
				d="
			M582.738647,335.364960 
				C582.599670,335.527161 582.429688,335.566589 582.259766,335.605988 
				C582.409119,335.484711 582.558411,335.363434 582.738647,335.364960 
			z"/>
			<path fill="#F8E4CA" opacity="1.000000" stroke="none" 
				d="
			M528.508057,361.504089 
				C528.484863,361.514069 528.531250,361.494080 528.508057,361.504089 
			z"/> -->
			<path fill="#F5F6FA" opacity="1.000000" stroke="none" 
				d="
			M514.454895,115.595100 
				C502.364563,119.955620 490.249268,121.934570 477.831451,120.824089 
				C474.746216,120.548187 471.836548,118.309158 468.846161,116.972488 
				C471.261810,114.950317 473.366608,112.147972 476.146637,111.040314 
				C488.516479,106.111679 501.446075,103.984116 514.736328,105.647797 
				C517.335938,105.973221 519.709473,108.104492 522.187317,109.402878 
				C520.186829,111.220642 518.202332,113.056725 516.170532,114.838829 
				C515.815735,115.150055 515.261719,115.234184 514.454895,115.595100 
			z"/>
		</symbol>
	</defs>
</svg>